# xmcd
#
# Track frame offsets:
#   150
#   21786
#   38698
#   61239
#   86529
#   112977
#   130695
#   152450
#   169709
#   192054
#   208465
#   230166
#   245464
#
# Disc length: 3507 seconds
#
# Revision: 0
# Processed by: cddbd v1.5.2PL0 Copyright (c) Steve Scherf et al.
# Submitted via: GXTranscoder 2.0.1939
#
DISCID=a30db10d
DTITLE=2Raumwohnung - Kommt zusammen
DYEAR=1900
DGENRE=Electronic
TTITLE0=1
TTITLE1=2
TTITLE2=3
TTITLE3=4
TTITLE4=Bleib Ge-schmeidig
TTITLE5=Mit viel Glück
TTITLE6=2 von millionen von s
TTITLE7=Liebe Ohne Ende
TTITLE8=Wir Trafen uns in E.
TTITLE9=Lachen und Weinen
TTITLE10=Sie kann fliegen
TTITLE11=Wir trafen uns in E.
TTITLE12=Wir werden singen
EXTD=
EXTT0=
EXTT1=
EXTT2=
EXTT3=
EXTT4=
EXTT5=
EXTT6=
EXTT7=
EXTT8=
EXTT9=
EXTT10=
EXTT11=
EXTT12=
PLAYORDER=
